name Walk2.mot
datacolumns 19
datarows 17
range 4.35800000 4.37400000
endheader

                time	   L_ground_force_vx	   L_ground_force_vy	   L_ground_force_vz	   L_ground_force_px	   L_ground_force_py	   L_ground_force_pz	   R_ground_force_vx	   R_ground_force_vy	   R_ground_force_vz	   R_ground_force_px	   R_ground_force_py	   R_ground_force_pz	   L_ground_torque_x	   L_ground_torque_y	   L_ground_torque_z	   R_ground_torque_x	   R_ground_torque_y	   R_ground_torque_z	
          4.35800000	          0.00000000	          0.00000000	         -0.00000000	         -0.00000000	          0.00000000	         -0.00000000	         25.07963815	         99.63556984	         -0.91891934	          0.24640845	          0.00000000	          0.09994755	          0.00000000	          0.00000000	          0.00000000	          0.00000000	         -5.62827380	          0.00000000	
          4.35900000	          0.00000000	          0.00000000	         -0.00000000	         -0.00000000	          0.00000000	         -0.00000000	         23.91138008	         93.92418017	         -0.71262282	          0.24100399	          0.00000000	          0.09752553	          0.00000000	          0.00000000	          0.00000000	          0.00000000	         -5.40888379	          0.00000000	
          4.36000000	          0.00000000	          0.00000000	         -0.00000000	         -0.00000000	          0.00000000	         -0.00000000	         22.75905552	         88.36865488	         -0.51995334	          0.23540612	          0.00000000	          0.09503558	          0.00000000	          0.00000000	          0.00000000	          0.00000000	         -5.19005428	          0.00000000	
          4.36100000	          0.00000000	          0.00000000	         -0.00000000	         -0.00000000	          0.00000000	         -0.00000000	         21.62432904	         82.97203023	         -0.34062451	          0.22962033	          0.00000000	          0.09248058	          0.00000000	          0.00000000	          0.00000000	          0.00000000	         -4.97217058	          0.00000000	
          4.36200000	          0.00000000	          0.00000000	         -0.00000000	         -0.00000000	          0.00000000	         -0.00000000	         20.50882188	         77.73705838	         -0.17432648	          0.22365342	          0.00000000	          0.08986392	          0.00000000	          0.00000000	          0.00000000	          0.00000000	         -4.75561819	          0.00000000	
          4.36300000	          0.00000000	          0.00000000	         -0.00000000	         -0.00000000	          0.00000000	         -0.00000000	         19.41410432	         72.66619371	         -0.02072604	          0.21751352	          0.00000000	          0.08718950	          0.00000000	          0.00000000	          0.00000000	          0.00000000	         -4.54078164	          0.00000000	
          4.36400000	          0.00000000	          0.00000000	         -0.00000000	         -0.00000000	          0.00000000	         -0.00000000	         18.34168773	         67.76158085	          0.12053342	          0.21121027	          0.00000000	          0.08446176	          0.00000000	          0.00000000	          0.00000000	          0.00000000	         -4.32804336	          0.00000000	
          4.36500000	          0.00000000	          0.00000000	         -0.00000000	         -0.00000000	          0.00000000	         -0.00000000	         17.29301637	         63.02504500	          0.24983209	          0.20475490	          0.00000000	          0.08168577	          0.00000000	          0.00000000	          0.00000000	          0.00000000	         -4.11778262	          0.00000000	
          4.36600000	          0.00000000	          0.00000000	         -0.00000000	         -0.00000000	          0.00000000	         -0.00000000	         16.26945884	         58.45808415	          0.36757380	          0.19816037	          0.00000000	          0.07886719	          0.00000000	          0.00000000	          0.00000000	          0.00000000	         -3.91037452	          0.00000000	
          4.36700000	          0.00000000	          0.00000000	         -0.00000000	         -0.00000000	          0.00000000	         -0.00000000	         15.27229914	         54.06186227	          0.47418594	          0.19144144	          0.00000000	          0.07601235	          0.00000000	          0.00000000	          0.00000000	          0.00000000	         -3.70618889	          0.00000000	
          4.36800000	          0.00000000	          0.00000000	         -0.00000000	         -0.00000000	          0.00000000	         -0.00000000	         14.30272703	         49.83720083	          0.57011911	          0.18461486	          0.00000000	          0.07312829	          0.00000000	          0.00000000	          0.00000000	          0.00000000	         -3.50558886	          0.00000000	
          4.36900000	          0.00000000	          0.00000000	         -0.00000000	         -0.00000000	          0.00000000	         -0.00000000	         13.36182752	         45.78456591	          0.65584593	          0.17769942	          0.00000000	          0.07022273	          0.00000000	          0.00000000	          0.00000000	          0.00000000	         -3.30892851	          0.00000000	
          4.37000000	          0.00000000	          0.00000000	         -0.00000000	         -0.00000000	          0.00000000	         -0.00000000	         12.45056926	         41.90404803	          0.73185845	          0.17071614	          0.00000000	          0.06730412	          0.00000000	          0.00000000	          0.00000000	          0.00000000	         -3.11654931	          0.00000000	
          4.37100000	          0.00000000	          0.00000000	         -0.00000000	         -0.00000000	          0.00000000	         -0.00000000	         11.56979234	         38.19533478	          0.79866364	          0.16368838	          0.00000000	          0.06438162	          0.00000000	          0.00000000	          0.00000000	          0.00000000	         -2.92877514	          0.00000000	
          4.37200000	          0.00000000	          0.00000000	         -0.00000000	         -0.00000000	          0.00000000	         -0.00000000	         10.72019621	         34.65767655	          0.85677655	          0.15664164	          0.00000000	          0.06146500	          0.00000000	          0.00000000	          0.00000000	          0.00000000	         -2.74590578	          0.00000000	
          4.37300000	          0.00000000	          0.00000000	         -0.00000000	         -0.00000000	          0.00000000	         -0.00000000	          9.90232885	         31.28984883	          0.90671168	          0.14960243	          0.00000000	          0.05856419	          0.00000000	          0.00000000	          0.00000000	          0.00000000	         -2.56820948	          0.00000000	
          4.37400000	          0.00000000	          0.00000000	         -0.00000000	         -0.00000000	          0.00000000	         -0.00000000	          9.11658138	         28.09013078	          0.94897486	          0.14259641	          0.00000000	          0.05568873	          0.00000000	          0.00000000	          0.00000000	          0.00000000	         -2.39591699	          0.00000000	
